<svg xmlns="http://www.w3.org/2000/svg" viewBox="0 0 500 500"><g id="freepik--Floor--inject-2"><path id="freepik--floor--inject-2" d="M423,455.4c95.53-55.15,95.53-144.57,0-199.72s-250.41-55.16-345.94,0S-18.5,400.25,77,455.4,327.44,510.56,423,455.4Z" style="fill:#fafafa"></path></g><g id="freepik--Shadows--inject-2"><path id="freepik--Shadow--inject-2" d="M295.54,257.78c-9,5.17-9,13.56,0,18.73s23.48,5.17,32.44,0,9-13.56,0-18.73S304.5,252.61,295.54,257.78Z" style="fill:#e0e0e0"></path><path id="freepik--shadow--inject-2" d="M476.49,356.23c10.31,6,10.31,15.78,0,21.8s-27,6-37.33,0-10.31-15.78,0-21.8S466.18,350.21,476.49,356.23Z" style="fill:#e0e0e0"></path><path id="freepik--shadow--inject-2" d="M14.58,373.51,122.67,311.1a9.57,9.57,0,0,1,8.66,0L173,335.19c2.39,1.38,2.39,3.62,0,5L65,402.59a9.57,9.57,0,0,1-8.66,0L14.58,378.51C12.19,377.13,12.19,374.89,14.58,373.51Z" style="fill:#e0e0e0"></path><ellipse id="freepik--shadow--inject-2" cx="321.06" cy="424.22" rx="75.37" ry="43.51" style="fill:#e0e0e0"></ellipse><ellipse id="freepik--shadow--inject-2" cx="179.53" cy="424.22" rx="75.37" ry="43.51" style="fill:#e0e0e0"></ellipse></g><g id="freepik--Windows--inject-2"><g id="freepik--Window--inject-2"><path d="M449.93,109.78c0-26.67-17.57-58.42-39.23-70.93-11.47-6.62-21.79-6.52-29-1-8.92,3.7-14.63,13.95-14.63,29.15V204.72L445.57,250l4.36-2.52Z" style="fill:#e6e6e6"></path><path d="M445.57,250V112.3c0-26.67-17.56-58.43-39.23-70.94s-39.23-1-39.23,25.64V204.72Z" style="fill:#f5f5f5"></path><path d="M441.28,112.3V242.58l-69.87-40.35V67c0-13.33,4.68-22.53,12.57-25.42a16.14,16.14,0,0,1,5.72-1c4.46,0,9.33,1.5,14.5,4.49C424.65,56.89,441.28,87,441.28,112.3Z" style="fill:#e0e0e0"></path><polygon points="371.4 202.23 375.84 199.68 441.28 237.47 441.28 242.58 371.4 202.23" style="fill:#ebebeb"></polygon><path d="M441.28,112.3V237.47l-65.44-37.79V64.44c0-10.59,3-18.57,8.15-22.85a16.14,16.14,0,0,1,5.72-1c4.46,0,9.33,1.5,14.5,4.49C424.65,56.89,441.28,87,441.28,112.3Z" style="fill:#fff"></path><polygon points="408.49 223.64 404.2 221.16 404.2 43.54 408.49 43.54 408.49 223.64" style="fill:#f5f5f5"></polygon><path d="M412.78,51.29V221.17l-4.29,2.47V47.86C410,48.92,411.37,50.05,412.78,51.29Z" style="fill:#e0e0e0"></path><polygon points="371.4 171.96 404.2 190.89 404.2 195.93 371.4 177 371.4 171.96" style="fill:#f5f5f5"></polygon><polygon points="375.84 169.41 371.4 171.96 404.2 190.89 404.2 185.86 375.84 169.41" style="fill:#ebebeb"></polygon><polygon points="408.49 193.37 441.28 212.3 441.28 217.33 408.49 198.41 408.49 193.37" style="fill:#f5f5f5"></polygon><polygon points="412.92 190.81 408.49 193.37 441.28 212.3 441.28 207.27 412.92 190.81" style="fill:#ebebeb"></polygon><polygon points="371.4 76.56 404.2 95.49 404.2 100.53 371.4 81.6 371.4 76.56" style="fill:#f5f5f5"></polygon><polygon points="375.84 74.01 371.4 76.56 404.2 95.49 404.2 90.46 375.84 74.01" style="fill:#ebebeb"></polygon><polygon points="408.49 97.97 441.28 116.9 441.28 121.93 408.49 103 408.49 97.97" style="fill:#f5f5f5"></polygon><polygon points="412.92 95.41 408.49 97.97 441.28 116.9 441.28 111.86 412.92 95.41" style="fill:#ebebeb"></polygon></g><g id="freepik--window--inject-2"><g id="freepik--window--inject-2"><g id="freepik--Frame--inject-2"><polygon points="130.4 41.19 132.69 42.47 132.69 133.44 130.4 132.17 130.4 41.19" style="fill:#fafafa"></polygon><polygon points="130.4 132.17 130.39 43.8 23.45 105.57 23.47 193.93 130.4 132.17" style="fill:#fff"></polygon><path d="M136.93,135.9V35.11l-117.73,68V203.9ZM23.45,196.54v-91l109.23-63.1v91Z" style="fill:#f0f0f0"></path><polygon points="132.69 133.44 130.4 132.17 23.47 193.93 23.45 196.54 132.69 133.44" style="fill:#e0e0e0"></polygon><polygon points="97.74 62.65 100.03 61.33 100.03 152.29 97.74 151.02 97.74 62.65" style="fill:#fafafa"></polygon><polygon points="50.44 89.98 52.73 88.66 52.73 179.63 50.44 178.35 50.44 89.98" style="fill:#fafafa"></polygon><polygon points="19.2 203.9 16.93 202.57 16.93 101.79 19.2 103.11 19.2 203.9" style="fill:#fafafa"></polygon><polygon points="16.93 101.79 19.2 103.11 136.93 35.12 134.66 33.79 16.93 101.79" style="fill:#e0e0e0"></polygon><polygon points="23.45 145.93 23.45 148.57 132.69 85.48 130.41 84.15 23.45 145.93" style="fill:#e0e0e0"></polygon></g><polygon points="23.46 153.47 23.45 148.57 132.69 85.48 132.69 90.39 23.46 153.47" style="fill:#f0f0f0"></polygon><polygon points="52.73 184.54 56.98 182.09 56.98 81.3 52.73 83.75 52.73 184.54" style="fill:#f0f0f0"></polygon><polygon points="100.02 157.21 104.27 154.76 104.27 53.98 100.02 56.42 100.02 157.21" style="fill:#f0f0f0"></polygon><polygon points="52.73 131.67 50.44 130.35 50.44 89.98 52.73 88.66 52.73 131.67" style="fill:#fafafa"></polygon><polygon points="100.01 104.35 97.72 103.03 97.72 62.66 100.01 61.34 100.01 104.35" style="fill:#fafafa"></polygon></g></g></g><g id="freepik--Pictures--inject-2"><g id="freepik--Picture--inject-2"><g id="freepik--frame--inject-2"><polygon points="158.72 81.73 160.02 82.5 186.75 67 185.45 66.22 158.72 81.73" style="fill:#fafafa"></polygon><polygon points="185.45 66.22 160.02 80.97 159.97 54.31 185.4 39.58 185.45 66.22" style="fill:#fff"></polygon><path d="M189.15,34.54,157.51,52.9l.06,33.87,31.65-18.35ZM186.75,67,160,82.5,160,54.31l26.73-15.5Z" style="fill:#f0f0f0"></path><polygon points="186.75 67 185.45 66.22 185.4 39.58 186.7 38.81 186.75 67" style="fill:#e0e0e0"></polygon><polygon points="189.15 34.55 187.82 33.79 156.18 52.14 157.51 52.9 189.15 34.55" style="fill:#fafafa"></polygon><polygon points="156.18 52.14 157.51 52.9 157.57 86.77 156.25 86.01 156.18 52.14" style="fill:#e0e0e0"></polygon></g><g id="freepik--Land--inject-2"><polygon points="184.45 65.43 161.01 79.02 161 72.25 166.84 58.69 170.5 62.07 169.2 67.75 177.27 50.41 184.44 58.66 184.45 65.43" style="fill:#f0f0f0"></polygon><path d="M170.26,52.14a3.84,3.84,0,0,0-1.73,3c0,1.11.78,1.56,1.74,1a3.84,3.84,0,0,0,1.73-3C172,52,171.22,51.59,170.26,52.14Z" style="fill:#f0f0f0"></path></g></g><g id="freepik--picture--inject-2"><g id="freepik--frame--inject-2"><polygon points="158.72 81.73 160.02 82.5 186.75 67 185.45 66.22 158.72 81.73" style="fill:#fafafa"></polygon><polygon points="185.45 66.22 160.02 80.97 159.97 54.31 185.4 39.58 185.45 66.22" style="fill:#fff"></polygon><path d="M189.15,34.54,157.51,52.9l.06,33.87,31.65-18.36ZM186.75,67,160,82.5,160,54.31l26.73-15.5Z" style="fill:#f0f0f0"></path><polygon points="186.75 67 185.45 66.22 185.4 39.58 186.7 38.81 186.75 67" style="fill:#e0e0e0"></polygon><polygon points="189.15 34.55 187.82 33.79 156.18 52.14 157.51 52.9 189.15 34.55" style="fill:#fafafa"></polygon><polygon points="156.18 52.14 157.51 52.9 157.57 86.77 156.25 86.01 156.18 52.14" style="fill:#e0e0e0"></polygon></g><g id="freepik--land--inject-2"><polygon points="184.45 65.43 161.01 79.02 161 72.25 166.84 58.69 170.5 62.07 169.2 67.75 177.27 50.41 184.44 58.66 184.45 65.43" style="fill:#f0f0f0"></polygon><path d="M170.26,52.14a3.84,3.84,0,0,0-1.73,3c0,1.11.78,1.56,1.74,1a3.84,3.84,0,0,0,1.73-3C172,52,171.22,51.59,170.26,52.14Z" style="fill:#f0f0f0"></path></g></g><g id="freepik--picture--inject-2"><g id="freepik--frame--inject-2"><polygon points="158.72 127.04 160.02 127.81 186.75 112.31 185.45 111.54 158.72 127.04" style="fill:#fafafa"></polygon><polygon points="185.45 111.54 160.02 126.28 159.97 99.63 185.4 84.89 185.45 111.54" style="fill:#fff"></polygon><path d="M189.15,79.86,157.51,98.21l.06,33.87,31.65-18.35Zm-2.4,32.45L160,127.81,160,99.63,186.7,84.12Z" style="fill:#f0f0f0"></path><polygon points="186.75 112.31 185.45 111.54 185.4 84.89 186.7 84.12 186.75 112.31" style="fill:#e0e0e0"></polygon><polygon points="189.15 79.86 187.82 79.1 156.18 97.45 157.51 98.21 189.15 79.86" style="fill:#fafafa"></polygon><polygon points="156.18 97.45 157.51 98.21 157.57 132.08 156.25 131.32 156.18 97.45" style="fill:#e0e0e0"></polygon></g><g id="freepik--land--inject-2"><polygon points="184.45 110.74 161.01 124.34 161 117.56 166.84 104 170.5 107.38 169.2 113.06 177.27 95.72 184.44 103.97 184.45 110.74" style="fill:#f0f0f0"></polygon><path d="M170.26,97.45a3.85,3.85,0,0,0-1.73,3c0,1.11.78,1.56,1.74,1a3.82,3.82,0,0,0,1.73-3C172,97.35,171.22,96.9,170.26,97.45Z" style="fill:#f0f0f0"></path></g></g></g><g id="freepik--Lamp--inject-2"><g id="freepik--lamp--inject-2"><path d="M331.27,261.45h0c0-2.88-1.88-5.76-5.69-8-7.62-4.4-20-4.4-27.6,0-3.81,2.2-5.7,5.08-5.69,8h0v2.7h0c.05,2.85,1.95,5.68,5.71,7.85,7.62,4.4,20,4.4,27.6,0,3.76-2.17,5.67-5,5.71-7.85h0Z" style="fill:#e0e0e0"></path><path d="M298,253.49c-7.62,4.4-7.62,11.53,0,15.93s20,4.4,27.6,0,7.62-11.53,0-15.93S305.58,249.09,298,253.49Z" style="fill:#f0f0f0"></path><path d="M309.75,82.79h4.11V259.34h0a1,1,0,0,1-.58.94,3.24,3.24,0,0,1-2.91,0,1,1,0,0,1-.58-.94h0Z" style="fill:#e0e0e0"></path><path d="M285.25,73.52h0l12.51-31.89h28.11l12.51,31.89h0c1.78,5-.66,10.38-7.37,14.25-10.59,6.11-27.76,6.11-38.36,0C285.92,83.9,283.47,78.51,285.25,73.52Z" style="fill:#f0f0f0"></path><path d="M299.09,79.58c-5.09-8.28,1.42-23.93,6.21-37v-.94h-7.55L285.24,73.52h0c-1.78,5,.67,10.38,7.37,14.25,10.6,6.11,27.77,6.11,38.36,0C321.41,91.52,304.18,87.85,299.09,79.58Z" style="fill:#e0e0e0"></path><path d="M322,49.27c-5.62,3.24-14.73,3.24-20.35,0s-5.61-8.5,0-11.75,14.73-3.24,20.35,0S327.59,46,322,49.27Z" style="fill:#fafafa"></path><path d="M311.8,50a18.94,18.94,0,0,0,9.34-2.21c2.18-1.25,3.38-2.83,3.38-4.42s-1.2-3.17-3.38-4.43a20.82,20.82,0,0,0-18.67,0c-2.18,1.26-3.38,2.83-3.38,4.43s1.2,3.17,3.38,4.42A18.9,18.9,0,0,0,311.8,50Z" style="fill:#e0e0e0"></path></g></g><g id="freepik--Furnitures--inject-2"><g id="freepik--Drawer--inject-2"><path id="freepik--shadow--inject-2" d="M468,331.59l-46.89,27a3,3,0,0,1-2.68,0L310,296a.82.82,0,0,1,0-1.55l46.89-27a3,3,0,0,1,2.68,0L468,330A.82.82,0,0,1,468,331.59Z" style="fill:#e0e0e0"></path><g id="freepik--tv-stand--inject-2"><path d="M319.84,296.27l96.33,55.58a5,5,0,0,0,4.47,0l37.52-21.66a4.94,4.94,0,0,0,2.24-3.88V275.84a4.93,4.93,0,0,0-2.24-3.87l-96.33-55.58a4.9,4.9,0,0,0-4.47,0l-37.52,21.66a4.93,4.93,0,0,0-2.24,3.87v50.47A4.94,4.94,0,0,0,319.84,296.27Z" style="fill:#e0e0e0"></path><path d="M363.38,269.34a2.07,2.07,0,0,1-.69-1.19l-42,24.24a2.09,2.09,0,0,0,.69,1.2l93.91,54.18,42-24.24Z" style="fill:#f5f5f5"></path><path id="freepik--shadow--inject-2" d="M388.94,304.14,368.7,315.83a4,4,0,0,1-3.63,0l-25-14.57a1.11,1.11,0,0,1,0-2.1l20.24-11.68a4,4,0,0,1,3.63,0l25,14.57A1.1,1.1,0,0,1,388.94,304.14Z" style="fill:#e0e0e0"></path><path d="M386.38,301.89v1.72l-18.73,10.82a1.68,1.68,0,0,1-.68.24,1.79,1.79,0,0,1-1.19-.24l-23.67-13.64V299l23,13.31a3.56,3.56,0,0,0,3.24,0Z" style="fill:#fafafa"></path><path d="M386.38,301.89v1.72l-18.73,10.82a1.68,1.68,0,0,1-.68.24h-.27v-2a3.3,3.3,0,0,0,1.63-.39Z" style="fill:#f0f0f0"></path><path d="M368.33,312.31l18.05-10.42a3.57,3.57,0,0,0,1.62-2.81v-3.34a3.55,3.55,0,0,0-1.62-2.8l-23-13.25a3.56,3.56,0,0,0-3.24,0l-18.05,10.42a3.58,3.58,0,0,0-1.62,2.8v3.34a3.47,3.47,0,0,0,1.62,2.75l23,13.31A3.56,3.56,0,0,0,368.33,312.31Z" style="fill:#f0f0f0"></path><path d="M366.71,288.89l19.67,4.05a3.55,3.55,0,0,1,1.62,2.8v3.34a3.57,3.57,0,0,1-1.62,2.81l-18.05,10.42a3.29,3.29,0,0,1-1.62.39Z" style="fill:#e0e0e0"></path><path d="M386.38,294.81l-18.05,10.42a3.56,3.56,0,0,1-3.24,0l-23-13.25a1,1,0,0,1,0-1.87l18.05-10.42a3.56,3.56,0,0,1,3.24,0l23,13.25A1,1,0,0,1,386.38,294.81Z" style="fill:#e0e0e0"></path><path d="M366,291.86c1,.56,1,1.45,0,2a3.88,3.88,0,0,1-3.48,0c-1-.55-1-1.44,0-2A3.88,3.88,0,0,1,366,291.86Z" style="fill:#fafafa"></path><path d="M345.05,295.45a1.4,1.4,0,0,1,.64,1.1c0,.41-.29.59-.64.39a1.41,1.41,0,0,1-.63-1.11C344.42,295.42,344.7,295.25,345.05,295.45Z" style="fill:#fafafa"></path><path d="M345.05,297.9a1.4,1.4,0,0,1,.64,1.1c0,.41-.29.58-.64.38a1.37,1.37,0,0,1-.63-1.1C344.42,297.87,344.7,297.7,345.05,297.9Z" style="fill:#fafafa"></path><polygon points="362.69 243.48 320.7 267.73 379.51 301.65 421.51 277.4 362.69 243.48" style="fill:#f5f5f5"></polygon><polygon points="320.7 267.73 320.7 271.96 379.15 305.67 379.15 301.44 320.7 267.73" style="fill:#ebebeb"></polygon><path id="freepik--shadow--inject-2" d="M388.1,278.84l-20.24,11.68a4,4,0,0,1-3.63,0l-39-22.49a1.11,1.11,0,0,1,0-2.1l20.24-11.68a4,4,0,0,1,3.63,0l39,22.49A1.11,1.11,0,0,1,388.1,278.84Z" style="fill:#e0e0e0"></path><g id="freepik--Console--inject-2"><path d="M367.6,288.16l18-10.42a3.55,3.55,0,0,0,1.62-2.8v.2a3.58,3.58,0,0,0-1.62-2.8l-36.3-21a3.56,3.56,0,0,0-3.24,0L328.07,261.8a3.57,3.57,0,0,0-1.62,2.81v-.21a3.58,3.58,0,0,0,1.62,2.81l36.3,21A3.56,3.56,0,0,0,367.6,288.16Z" style="fill:#f0f0f0"></path><path d="M366,261l19.67,11.36a3.58,3.58,0,0,1,1.62,2.8v-.2a3.55,3.55,0,0,1-1.62,2.8l-18,10.42a3.29,3.29,0,0,1-1.62.39Z" style="fill:#e0e0e0"></path><path d="M385.66,274.21l-18.05,10.42a3.62,3.62,0,0,1-3.24,0l-36.3-21a1,1,0,0,1,0-1.87l18.05-10.42a3.56,3.56,0,0,1,3.24,0l36.3,21A1,1,0,0,1,385.66,274.21Z" style="fill:#e0e0e0"></path><path d="M385.66,270.78v1.73l-18.74,10.81a1.64,1.64,0,0,1-.67.24,1.78,1.78,0,0,1-1.19-.24l-37-21.35v-1.78l36.3,21a3.28,3.28,0,0,0,1.61.39,3.33,3.33,0,0,0,1.63-.39Z" style="fill:#fafafa"></path><path d="M385.66,270.78v1.73l-18.74,10.81a1.64,1.64,0,0,1-.67.24H366v-2a3.33,3.33,0,0,0,1.63-.39Z" style="fill:#f0f0f0"></path><path d="M367.61,281.2l18.05-10.42a3.6,3.6,0,0,0,1.62-2.81v-3.33a3.58,3.58,0,0,0-1.62-2.81l-36.3-21a3.56,3.56,0,0,0-3.24,0l-18.05,10.42a3.58,3.58,0,0,0-1.62,2.81v3.34a3.48,3.48,0,0,0,1.62,2.75l36.3,21A3.56,3.56,0,0,0,367.61,281.2Z" style="fill:#f0f0f0"></path><path d="M366,250.47l19.67,11.36a3.58,3.58,0,0,1,1.62,2.81V268a3.6,3.6,0,0,1-1.62,2.81L367.61,281.2a3.29,3.29,0,0,1-1.62.39Z" style="fill:#e0e0e0"></path><path d="M385.66,263.7l-18.05,10.42a3.56,3.56,0,0,1-3.24,0l-36.3-21a1,1,0,0,1,0-1.87l18.05-10.42a3.56,3.56,0,0,1,3.24,0l36.3,21A1,1,0,0,1,385.66,263.7Z" style="fill:#e0e0e0"></path><path d="M360.48,255.42c2,1.15,2,3,0,4.16a8.09,8.09,0,0,1-7.24,0c-2-1.14-2-3,0-4.16A8,8,0,0,1,360.48,255.42Z" style="fill:#fafafa"></path><path d="M331,256.64a1.37,1.37,0,0,1,.63,1.1c0,.41-.28.58-.63.38a1.39,1.39,0,0,1-.63-1.1C330.38,256.61,330.66,256.44,331,256.64Z" style="fill:#fafafa"></path><path d="M331,259.08a1.41,1.41,0,0,1,.63,1.11c0,.41-.28.58-.63.38a1.39,1.39,0,0,1-.63-1.1C330.38,259.06,330.66,258.89,331,259.08Z" style="fill:#fafafa"></path></g><polygon points="379.15 326.9 421.15 302.66 421.15 254.21 379.15 278.46 379.15 326.9" style="fill:#e0e0e0"></polygon><polygon points="376.41 273.26 376.41 328.9 379.15 330.48 379.15 274.84 376.41 273.26" style="fill:#ebebeb"></polygon><g id="freepik--Books--inject-2"><path d="M384.36,327.13l25.3-14.58a1.93,1.93,0,0,1,1.72,0l20,11.39a.52.52,0,0,1,0,1L407.8,338.52a1.89,1.89,0,0,1-1.73,0l-10.34-5.89a1.89,1.89,0,0,0-1.73,0h0a1.93,1.93,0,0,1-1.72,0l-7.92-4.51A.52.52,0,0,1,384.36,327.13Z" style="fill:#e0e0e0"></path><g id="freepik--Book--inject-2"><polygon points="408.66 277.44 388.76 289.07 388.67 327.21 408.56 315.58 408.66 277.44" style="fill:#e0e0e0"></polygon><path d="M389.4,289.71l19.26-11.19a8,8,0,0,0,4.39,2.42L394,292.07A18.57,18.57,0,0,1,389.4,289.71Z" style="fill:#fff"></path><path d="M395.8,292a4.07,4.07,0,0,1-3.69,0l-3.23-1.87a1.12,1.12,0,0,1,0-2.13l19-11,.8.46L390,288.35a.68.68,0,0,0,0,1.29l3,1.71a2.45,2.45,0,0,0,2.22,0l18.65-10.89.91.53Z" style="fill:#f0f0f0"></path><path d="M414.78,281l-.1,38.13-19,11a4.1,4.1,0,0,1-3.69,0l-3.23-1.87a1.27,1.27,0,0,1-.76-1.07l.09-38.13a1.3,1.3,0,0,0,.77,1.06l3.23,1.87a4,4,0,0,0,3.69,0Z" style="fill:#f0f0f0"></path><path d="M394,292.45a3.71,3.71,0,0,1-1.84-.44l-3.23-1.87a1.3,1.3,0,0,1-.77-1.06L388,327.21a1.27,1.27,0,0,0,.76,1.07l3.23,1.87a3.72,3.72,0,0,0,1.85.43Z" style="fill:#fafafa"></path></g><g id="freepik--book--inject-2"><polygon points="415.52 289.89 397.09 300.67 402.15 333.05 420.57 322.28 415.52 289.89" style="fill:#e0e0e0"></polygon><path d="M397.82,301.17l17.84-10.36a9.7,9.7,0,0,0,4.74,1.85L402.72,303A23.31,23.31,0,0,1,397.82,301.17Z" style="fill:#fff"></path><path d="M404.56,302.83a4.76,4.76,0,0,1-3.71.18l-3.5-1.44c-1.1-.45-1.23-1.27-.28-1.82l17.58-10.21.87.35L398.23,300c-.57.33-.49.82.17,1.09l3.25,1.32a2.86,2.86,0,0,0,2.23-.11l17.29-10.08,1,.4Z" style="fill:#f0f0f0"></path><path d="M422.15,292.62,427.2,325l-17.58,10.21a4.71,4.71,0,0,1-3.71.17L402.4,334c-.55-.22-.85-.54-.91-.87l-5.05-32.38c.05.33.36.64.91.87l3.5,1.44a4.76,4.76,0,0,0,3.71-.17Z" style="fill:#f0f0f0"></path><path d="M402.77,303.3a4.59,4.59,0,0,1-1.92-.29l-3.5-1.44c-.55-.23-.86-.54-.91-.87l5.05,32.38c.06.33.36.65.91.87l3.51,1.44a4.57,4.57,0,0,0,1.91.29Z" style="fill:#fafafa"></path></g></g><path d="M416.7,349.1l-2.49,1.62,2,1.13a5,5,0,0,0,4.47,0l19.95-11.51,17.57-10.15a4.94,4.94,0,0,0,2.24-3.88V275.84a4.55,4.55,0,0,0-.66-2.21L416.42,298.5Z" style="fill:#e0e0e0"></path><path d="M416.17,296.21l-96.33-55.58c-1.24-.71-2.24-.13-2.24,1.29v50.47a4.94,4.94,0,0,0,2.24,3.88l96.33,55.58c1.23.71,2.24.14,2.24-1.29V300.09A5,5,0,0,0,416.17,296.21Zm-.87,51.56-93.91-54.18a2.09,2.09,0,0,1-.69-1.2V244.71l93.92,54.19a2,2,0,0,1,.68,1.19Z" style="fill:#ebebeb"></path><path d="M459.74,273.63l-42.05,24.15a4.5,4.5,0,0,0-1.52-1.57l-96.33-55.58c-1-.6-1.9-.29-2.17.65a5,5,0,0,1,2.17-3.23l37.52-21.66a5,5,0,0,1,4.47,0L458.16,272A4.52,4.52,0,0,1,459.74,273.63Z" style="fill:#f5f5f5"></path></g></g><g id="freepik--drawer--inject-2"><polygon points="68.23 376.98 64.21 396.93 60.3 399.18 56.43 396.95 52.37 376.98 60.3 372.4 68.23 376.98" style="fill:#e0e0e0"></polygon><polygon points="68.23 376.98 64.21 396.93 60.3 399.18 56.43 396.95 52.37 376.98 60.3 372.4 68.23 376.98" style="opacity:0.05"></polygon><polygon points="60.3 399.18 60.3 381.56 68.23 376.98 64.21 396.93 60.3 399.18" style="fill:#ebebeb"></polygon><polygon points="68.23 376.98 65.63 389.86 60.3 392.94 54.99 389.87 52.37 376.98 60.3 372.4 68.23 376.98" style="opacity:0.05"></polygon><polygon points="33.36 356.85 29.34 376.8 25.43 379.05 21.56 376.81 17.5 356.85 25.43 352.27 33.36 356.85" style="fill:#e0e0e0"></polygon><polygon points="33.36 356.85 29.34 376.8 25.43 379.05 21.56 376.81 17.5 356.85 25.43 352.27 33.36 356.85" style="opacity:0.05"></polygon><polygon points="25.43 379.05 25.43 361.43 33.36 356.85 29.34 376.8 25.43 379.05" style="fill:#ebebeb"></polygon><polygon points="33.36 356.85 30.77 369.73 25.43 372.81 20.12 369.74 17.5 356.85 25.43 352.27 33.36 356.85" style="opacity:0.05"></polygon><polygon points="171.37 317.43 167.35 337.38 163.44 339.63 159.57 337.4 155.51 317.43 163.44 312.85 171.37 317.43" style="opacity:0.05"></polygon><polygon points="163.44 339.63 163.44 322.01 171.37 317.43 167.35 337.38 163.44 339.63" style="fill:#ebebeb"></polygon><polygon points="171.37 317.43 168.77 330.31 163.44 333.39 158.13 330.32 155.51 317.43 163.44 312.85 171.37 317.43" style="opacity:0.05"></polygon><g id="freepik--Cabinet--inject-2"><g id="freepik--cabinet--inject-2"><polygon points="60.3 389.72 17.09 364.77 17.09 271.25 60.3 296.2 60.3 389.72" style="fill:#e0e0e0"></polygon><polygon points="60.3 296.2 173.62 230.77 173.62 324.3 60.3 389.72 60.3 296.2" style="fill:#ebebeb"></polygon><polygon points="173.62 230.77 60.3 296.2 17.09 271.25 130.41 205.82 173.62 230.77" style="fill:#f5f5f5"></polygon><polygon points="66.47 342.53 167.44 284.23 167.44 318.55 168.58 319.21 67.61 377.5 66.47 376.85 66.47 342.53" style="fill:#e0e0e0"></polygon><polygon points="67.61 343.18 168.58 284.89 168.58 319.21 67.61 377.5 67.61 343.18" style="fill:#f5f5f5"></polygon><path d="M116.15,321.64l8.4-4.85c1.09-.63,2-.34,2,.65a4,4,0,0,1-2,2.92l-8.4,4.85c-1.09.63-2,.34-2-.65A4,4,0,0,1,116.15,321.64Z" style="fill:#e0e0e0"></path><polygon points="66.47 301.08 167.44 242.79 167.44 277.11 168.58 277.76 67.61 336.06 66.47 335.4 66.47 301.08" style="fill:#e0e0e0"></polygon><polygon points="67.61 301.74 168.58 243.44 168.58 277.76 67.61 336.06 67.61 301.74" style="fill:#f5f5f5"></polygon><path d="M116.15,280.2l8.4-4.85c1.09-.63,2-.34,2,.64a3.92,3.92,0,0,1-2,2.92l-8.4,4.85c-1.09.63-2,.34-2-.64A4,4,0,0,1,116.15,280.2Z" style="fill:#e0e0e0"></path></g></g><g id="freepik--Pot--inject-2"><path d="M103.11,234c5.24,3,5.24,7.93,0,10.95s-13.73,3-19,0S78.9,237,84.14,234,97.87,231,103.11,234Z" style="fill:#e0e0e0"></path><path d="M85.28,240.15c-4.56-4.65-7.24-16.28-2.79-20h22.64c4.45,3.69,1.77,15.31-2.79,20l-.12.12-.16.16-.41.36-.11.09a3.18,3.18,0,0,1-.35.26,5.36,5.36,0,0,1-.59.38,15,15,0,0,1-13.58,0h0a6.51,6.51,0,0,1-.59-.38,3.92,3.92,0,0,1-.32-.25l-.13-.1a3.51,3.51,0,0,1-.4-.36l-.18-.17Z" style="fill:#ebebeb"></path><path d="M103.16,218.69c5.17,3,5.17,7.82,0,10.8s-13.54,3-18.7,0-5.17-7.81,0-10.8S98,215.71,103.16,218.69Z" style="fill:#fafafa"></path><path d="M99.5,220.81c3.14,1.81,3.14,4.75,0,6.57a12.6,12.6,0,0,1-11.38,0c-3.14-1.82-3.14-4.76,0-6.57A12.54,12.54,0,0,1,99.5,220.81Z" style="fill:#f5f5f5"></path><path d="M88.12,223.93a12.54,12.54,0,0,1,11.38,0,5.2,5.2,0,0,1,1.88,1.72,5.31,5.31,0,0,1-1.88,1.73,12.6,12.6,0,0,1-11.38,0,5.22,5.22,0,0,1-1.88-1.73A5.12,5.12,0,0,1,88.12,223.93Z" style="fill:#ebebeb"></path><path d="M98.81,225.65a25.88,25.88,0,0,0,4.11-5.47c1.9-3.36,2.25-7.86,1.27-8.42s-5,3.94-5,3.94a24.31,24.31,0,0,0,.42-5.74c-.17-3-.9-5.72-1.75-6.27s-2.78,3.23-3.6,6-1.32,5-1.32,5a42.53,42.53,0,0,0-1.47-6.3c-1-2.84-1.9-3.49-2.61-3.2s-1.16,1.6-1.37,5.39a37.94,37.94,0,0,0,.17,5.41s-1.41-1.55-3-3c-1.72-1.65-2.46-1.88-2.95-1.57s-.63,2.89,2,7.71a26.85,26.85,0,0,0,5,6.61S92.51,228,98.81,225.65Z" style="fill:#e0e0e0"></path></g><g id="freepik--picture--inject-2"><g id="freepik--frame--inject-2"><polygon points="38.82 273.93 40.27 274.63 67.03 259.17 65.58 258.48 38.82 273.93" style="fill:#fafafa"></polygon><polygon points="65.58 258.48 40.13 273.17 36.42 235.09 61.88 220.4 65.58 258.48" style="fill:#fff"></polygon><path d="M65.39,215.53,33.7,233.82l4.37,44.92,31.68-18.3ZM67,259.17,40.27,274.63l-3.85-39.54,26.77-15.45Z" style="fill:#f0f0f0"></path><polygon points="67.03 259.17 65.58 258.48 61.88 220.4 63.19 219.64 67.03 259.17" style="fill:#e0e0e0"></polygon><polygon points="65.39 215.53 63.92 214.85 32.23 233.14 33.7 233.82 65.39 215.53" style="fill:#fafafa"></polygon><polygon points="32.23 233.14 33.7 233.82 38.07 278.74 36.6 278.06 32.23 233.14" style="fill:#e0e0e0"></polygon></g><g id="freepik--land--inject-2"><polygon points="64.47 257.75 40.99 271.3 40.37 264.89 44.73 246.04 48.9 252.47 48.03 257.89 54.97 237.9 63.84 251.34 64.47 257.75" style="fill:#f0f0f0"></polygon><path d="M44.37,238.11a3.32,3.32,0,0,0-1.55,2.9c.1,1.05,1,1.45,1.92.89a3.28,3.28,0,0,0,1.55-2.9C46.19,238,45.33,237.55,44.37,238.11Z" style="fill:#f0f0f0"></path></g></g></g></g><g id="freepik--Plant--inject-2"><g id="freepik--plant--inject-2"><g id="freepik--pot--inject-2"><g id="freepik--pot--inject-2"><path d="M474.38,368.64c8.85-9.14,14.05-42.86,5.42-50.1H435.85c-8.63,7.24-3.43,40.95,5.41,50.09.08.09.17.17.25.25l.3.3c.25.25.52.49.8.72l.21.17c.22.17.44.35.67.51a11.17,11.17,0,0,0,1.15.74c7.28,4.25,19.09,4.25,26.37,0h0a13.28,13.28,0,0,0,1.16-.74c.22-.16.42-.32.62-.48l.26-.21a10.21,10.21,0,0,0,.77-.69l.35-.35Z" style="fill:#ebebeb"></path><path d="M439.67,315.62c-10,5.85-10,15.34,0,21.2s26.28,5.85,36.31,0,10-15.35,0-21.2S449.7,309.76,439.67,315.62Z" style="fill:#fafafa"></path><path d="M444.49,318.43c-7.36,4.3-7.36,11.27,0,15.57s19.3,4.3,26.67,0,7.36-11.27,0-15.57S451.86,314.13,444.49,318.43Z" style="fill:#e0e0e0"></path><path d="M471.16,325.82c-7.37-4.3-19.3-4.3-26.67,0a12.31,12.31,0,0,0-4.41,4.09,12.31,12.31,0,0,0,4.41,4.09c7.37,4.3,19.3,4.3,26.67,0a12.31,12.31,0,0,0,4.41-4.09A12.31,12.31,0,0,0,471.16,325.82Z" style="fill:#f5f5f5"></path></g><g id="freepik--Plants--inject-2"><path d="M445.2,259.32,457,271.52,445,264a35.4,35.4,0,0,0,.63,12.38,79.51,79.51,0,0,1,9,8.35l-9.28-5.15s-1.52,6.36-.13,16.55c.37,2.67,2.61,8,4,11.89a43.4,43.4,0,0,0,2.2,5.28c0,.11.1.21.15.32,2.41-1,4.9-1.92,7.47-2.8,2-3.1,5.13-11,6.75-17.6,6.18-25.24-11.25-42.47-26.18-49.44A46.93,46.93,0,0,1,445.2,259.32Z" style="fill:#ebebeb"></path><path d="M456.09,261.84c2.34,3.06,3.45,6.84,4.19,10.56a52.43,52.43,0,0,1,.88,11.39,48.49,48.49,0,0,1-5.71,21.87h0a.38.38,0,1,0,.66.36h0a49,49,0,0,0,5.44-22.23,52.94,52.94,0,0,0-1.08-11.44C459.66,268.64,458.48,264.87,456.09,261.84Z" style="fill:#fff"></path><path d="M497.27,269.12v0a211.16,211.16,0,0,0-10.94,23L472.59,297l10.75,0-4,9.86-13.4,5.34,11.17-.16S476,323.09,469,328.89c-3.86,3.2-5.71,3.59-7.39,2.94-2.06-.78-3.49-3.66-5-8.07s-1.6-13.85,1.11-23.5a28.21,28.21,0,0,1,3.29-7.34C469.18,279.65,487.64,270.68,497.27,269.12Z" style="fill:#f0f0f0"></path><path d="M483.31,276.36a58.59,58.59,0,0,0-17.26,17.06,39.46,39.46,0,0,0-5,11.18,37.54,37.54,0,0,0-1,12.16,0,0,0,0,0,.08,0,48,48,0,0,1,1.71-11.95,44.62,44.62,0,0,1,4.73-11.06,59.73,59.73,0,0,1,16.76-17.32,0,0,0,0,0,0-.06A0,0,0,0,0,483.31,276.36Z" style="fill:#fff"></path><path d="M409.47,273.92h0a34.13,34.13,0,0,1,4.26.19,68,68,0,0,1,16.29,4c2,.72,3.9,1.54,5.82,2.46,1,.46,1.92.94,2.85,1.45a47.3,47.3,0,0,1,12.49,9.44,29.75,29.75,0,0,1,4.29,6c.16.28.32.55.46.84h0c.37.74.69,1.47,1,2.2a40.77,40.77,0,0,1,3.68,20c-.18,4.86-1.83,10.41-2.78,11.33a2.53,2.53,0,0,1-.42.31c-1.38.88-3.59.37-7.7-1.94-8.25-4.61-11.49-16.3-11.49-16.3L449.69,312,435,309.08l-6-9.33,11-2-15-2.3a219.85,219.85,0,0,0-15.53-21.51l0,0Z" style="fill:#f0f0f0"></path><path d="M413.73,274.11a68,68,0,0,1,16.29,4c2,.72,3.9,1.54,5.82,2.46,1,.46,1.92.94,2.85,1.45a47.3,47.3,0,0,1,12.49,9.44,29.75,29.75,0,0,1,4.29,6c.16.28.32.55.46.84h0c.37.74.69,1.47,1,2.2a40.77,40.77,0,0,1,3.68,20c-.18,4.86-1.83,10.41-2.78,11.33a2.53,2.53,0,0,1-.42.31,2.41,2.41,0,0,1-.91.33c1-7.53-2.68-26.63-8.29-34.48-5.84-8.17-19.68-20-38.71-24.11v0A35.51,35.51,0,0,1,413.73,274.11Z" style="fill:#e6e6e6"></path><path d="M456.55,332.54a64.69,64.69,0,0,0-1.08-16.66,53.75,53.75,0,0,0-5.53-15.8,47,47,0,0,0-11.18-12.49,63,63,0,0,0-14.35-8.6,0,0,0,0,0-.06,0,0,0,0,0,0,0,.06,82.46,82.46,0,0,1,13.8,9.24,62.15,62.15,0,0,1,6.06,5.64,37,37,0,0,1,5.07,6.5A53.47,53.47,0,0,1,455,316a64.42,64.42,0,0,1,1.45,16.56s0,.05,0,.05A0,0,0,0,0,456.55,332.54Z" style="fill:#fff"></path></g></g></g></g><g id="freepik--Characters--inject-2"><g id="freepik--Twins--inject-2"><path d="M267.12,112.3c-19.32,1-32.52-.69-44.2.24l11.68,32.11c8.46-5.29,34.93-7.67,42.18-10.38-.64-8.11-3.45-16.05-9.18-22.11Z" style="fill:#455a64"></path><path d="M267.6,112.16c5.73,6.06,8.54,14,9.18,22.11l.25-.09c6.89-2.75,31.92-17.05,31.92-17.05V102.27S281.06,108.36,267.6,112.16Z" style="fill:#9a4a4d"></path><path d="M278.37,120.65c-10.7,1.49-12.24,3-24.2,14.53-10.18,9.8-12.33,11.15-17.82,16.3s-8.14,7.26-9.81,11.21c-3,7.06.47,15.35,5,17,6.1,2.25,9.87,1.08,16.34-3.36,11.62-8,24.2-18.16,24.2-18.16Z" style="fill:#37474f"></path><path d="M167.7,208.43c-3.36,8.38-4.93,20.2-7.33,39.59-2.35,19-4.14,32-5.86,50.58-2.34,4.94-11.34,18.93-14.79,39.2-2,11.71-5,34.11-7.63,45.78l-1.84,7.15c1,9,13.93,10.59,16,5.47a45.49,45.49,0,0,0,3.42-6.91c6.8-16,19.37-47.63,24.27-59.86,3.8-9.49,17.46-44,24.88-62.7l5.6,40.52s-4,13.18-.59,40.2c1.62,12.67,3.69,24.52,3.9,42.38,0,1.91,1.71,4.72,1.64,6.63,0,.55,1.3,2.44,6.51,3.55s10.93-2.14,10.94-2.92c.27-19.7,4.91-70.08,5.86-83.27,2.33-32.45,3.49-84.61,3.5-105.39Z" style="fill:#b16668"></path><path d="M251.89,424.75c.33,0,.42,3.73-1.54,5.07-2.27,1.55-8.66,3.81-16.56,1.88s-9.95-3.79-12.86-6.83-5.54-6.18-9.07-7.39c-3.29-1.12-8.27-3-9.23-4.2s-.29-5.77-.29-5.77Z" style="fill:#263238"></path><path d="M207.64,387.79a1.44,1.44,0,0,0-1.48.95c-.39,1.25-1.07,4.93-1.83,7a52.85,52.85,0,0,0-2,13.42c.18,2.42,7,4.67,10.33,6.39s5.82,3.9,9.13,7.3a24.77,24.77,0,0,0,14.2,7.08c6.18.64,13.36-.59,15.28-3.27,2.36-3.33,3-6.7-5.66-12-1.64-1-6.64-4.73-8.57-6.27a39.91,39.91,0,0,1-5.84-5.56,31.37,31.37,0,0,1-2.07-2.68,7.92,7.92,0,0,1-1-2.73c-.35-1.75.08-3.55,0-5.33a1,1,0,0,0-.11-.48,1,1,0,0,0-.38-.29,10.79,10.79,0,0,0-4.47-.73,18.18,18.18,0,0,0-4.63.52,3.81,3.81,0,0,0-2.22,1.09,3.37,3.37,0,0,0-.6,1.67,11.78,11.78,0,0,1-.25,1.77,1,1,0,0,1-.3.56c-.34.28-.81,0-1.05-.3a23.27,23.27,0,0,1-2.14-3.24c-.38-.59-2.28-1.15-2.78-1.63a17,17,0,0,1-1.45-1.19C207.23,389.21,207.58,388.53,207.64,387.79Z" style="fill:#37474f"></path><path d="M221.77,422.81a50.56,50.56,0,0,0-3.89-3.73h0s9.33,4.95,14,2.46c3-1.61,1.94-4.08,1.95-4.83s7.29-3.17,10.05-3.19h0c.72.5,1.32.91,1.69,1.14,8.69,5.27,8,8.64,5.66,12-1.92,2.68-7.21,4.36-15.19,3.47A25.46,25.46,0,0,1,221.77,422.81Z" style="fill:#455a64"></path><path d="M233.34,414.44c5.45,2.92,2.9,3.71,1.28,3.76s-9.15-5.48-14.48-10.76c-5.57-5.51-10.31-11.2-12.38-13.23-.77-.75-1.59-1.67-2.32-2.51.29-1.24.54-2.37.72-3a2.06,2.06,0,0,1,1.63-1.22l-.06,2.31a4.47,4.47,0,0,0,1.57,1,7.39,7.39,0,0,1,2.66,1.79,23.27,23.27,0,0,0,2.14,3.24C218.37,402.76,227.9,411.53,233.34,414.44Z" style="fill:#263238"></path><path d="M234.31,417.32a.61.61,0,0,1-.35-.17.57.57,0,0,1,0-.8,13.68,13.68,0,0,1,10.9-3,.57.57,0,0,1,.43.68.56.56,0,0,1-.68.43c-3.87-.86-8.41,1.24-9.86,2.66A.55.55,0,0,1,234.31,417.32Z" style="fill:#f0f0f0"></path><path d="M229.64,414a.6.6,0,0,1-.35-.16.57.57,0,0,1,0-.8,13.63,13.63,0,0,1,10.83-3.21.57.57,0,0,1,.44.67.56.56,0,0,1-.66.44c-3.89-.76-8.38,1.44-9.8,2.89A.59.59,0,0,1,229.64,414Z" style="fill:#f0f0f0"></path><path d="M225.39,410.25a.6.6,0,0,1-.34-.16.58.58,0,0,1,0-.81,13.63,13.63,0,0,1,10.9-2.95.58.58,0,0,1,.43.68.57.57,0,0,1-.68.43c-3.87-.86-8.41,1.24-9.86,2.65A.53.53,0,0,1,225.39,410.25Z" style="fill:#f0f0f0"></path><path d="M221.65,406.91a.5.5,0,0,1-.35-.15.56.56,0,0,1,0-.8A13.69,13.69,0,0,1,232,402.54a.57.57,0,0,1-.2,1.12,12.62,12.62,0,0,0-9.73,3.08A.54.54,0,0,1,221.65,406.91Z" style="fill:#f0f0f0"></path><path d="M217.66,403a.58.58,0,0,1-.34-.15.57.57,0,0,1,0-.8c2.43-2.65,7.58-4.12,11.75-3.36a.57.57,0,0,1-.21,1.12c-3.75-.69-8.55.66-10.7,3A.55.55,0,0,1,217.66,403Z" style="fill:#f0f0f0"></path><path d="M141,425.12c-1.37,5.42-2.92,8.89-5.49,11.73s-6.42,3.15-10,1.49-7.81-5.09-8-10,.68-8.13,2.5-13.05Z" style="fill:#263238"></path><path d="M132.09,383.58c-1.38.17-3.14,7.61-5.44,14.81-2.47,7.71-4.31,9.83-6.41,16.14-2.38,7.22-2.34,9.79-.61,14.76s10.07,11.13,15.82,5.59c4.69-4.51,5.67-9.47,6.75-16.92a156.31,156.31,0,0,1,3.44-17.6c1.36-5.48,5.24-10.2,4-11.07.23.16-1.55,3.68-1.71,4a7.07,7.07,0,0,1-1.19,1.9c-.92.89-1-.86-.82-1.5.21-1.09.74-1.9.06-3a6.5,6.5,0,0,0-2-1.75,13.53,13.53,0,0,0-2.63-1.33,29.37,29.37,0,0,0-5.84-1.46,2.83,2.83,0,0,0-2.46.51,1.57,1.57,0,0,0-.33.54c-.29.69-.35,1.46-.64,2.15-.08.2-.27.71-.48.79s-.53,0-.51-.17S131.7,384.84,132.09,383.58Z" style="fill:#37474f"></path><path d="M121,412.06c-.35,1-2.37,7.56-.69,9.2s4-3.55,4-3.55,5.17-.56,11.69,3.92c-.59,1.08-.22,5.07,1.88,4.64s4.13-7.57,4.16-7.67c-1.07,7.14-2.1,11.9-6.66,16.28-5.75,5.54-14.09-.61-15.82-5.59s-1.77-7.54.61-14.76C120.48,413.81,120.78,412.7,121,412.06Z" style="fill:#455a64"></path><path d="M124.85,418.29c-.55,2.67-2.76,1.29-2.4-2.54.53-5.74,3-10.86,4.2-17.36,2.3-7.2,3.89-15,5.44-14.81-.3,1.27-1,6.4-1,6.4-1.54,5.42-4.22,11.59-5.09,17.31C125.22,412.34,125.39,415.62,124.85,418.29Z" style="fill:#263238"></path><path d="M135.25,421.4c1-2.53,2-3.12,3.5-8s5.94-13.27,8-18.46c.6-1.61,2.87-5.59,2.89-5.65.87.65-.63,3.57-2,6.76s-2.29,5.13-3.38,8.25c-2.54,6.11-4,12.83-5.61,16.34S134.25,423.93,135.25,421.4Z" style="fill:#263238"></path><path d="M135.84,421.64a.54.54,0,0,1-.2-.1,18.41,18.41,0,0,0-11.56-3.49.58.58,0,0,1-.08-1.15,19.23,19.23,0,0,1,12.36,3.74.57.57,0,0,1,.09.81A.56.56,0,0,1,135.84,421.64Z" style="fill:#f0f0f0"></path><path d="M138.4,416.63l-.18-.09c-.05,0-6.26-4.48-13.46-4.21a.57.57,0,0,1-.6-.55.58.58,0,0,1,.56-.6c7.62-.28,13.95,4.25,14.19,4.43a.58.58,0,0,1-.51,1Z" style="fill:#f0f0f0"></path><path d="M124.81,407.84a.58.58,0,0,1,.09-1.13c7.31-1,15.72,3.94,16,4.15a.57.57,0,0,1,.09.81.58.58,0,0,1-.81.09c-.06,0-8.29-4.85-15.09-3.9A.69.69,0,0,1,124.81,407.84Z" style="fill:#f0f0f0"></path><path d="M126.84,403.26a.58.58,0,0,1,.08-1.12c8.07-1.26,15,4.37,15.27,4.58a.59.59,0,0,1,0,.82.58.58,0,0,1-.82,0c0-.05-6.8-5.47-14.31-4.3A.74.74,0,0,1,126.84,403.26Z" style="fill:#f0f0f0"></path><path d="M128.43,397.51a.58.58,0,0,1-.4-.46.59.59,0,0,1,.47-.67c7.59-1.28,15.08,4.54,15.34,4.77a.58.58,0,1,1-.76.87c-.06,0-7.34-5.69-14.38-4.5A.61.61,0,0,1,128.43,397.51Z" style="fill:#ebebeb"></path><path d="M198.82,269.72,203.33,306a113.13,113.13,0,0,0-2.15,21.13c.1,10.42,3.56,40.7,5.39,51.83a23,23,0,0,0,22.55,1.44s4.7-60.59,6.21-75.15.85-73.64,1.07-96.81H165.16s-3,8.25-5,26.79-8.5,63.82-8.5,63.82c-10,18.4-12.09,32.46-18,73.61,6.57,10.06,20.62,7.74,20.62,7.74s18.1-43.77,22.28-53.27c3.27-7.44,18.18-46.46,22.29-57.4" style="fill:#455a64"></path><path d="M229.51,244.1l.9,28.46c0,4.54.56,14.5.45,19s-.13,9.08-.51,13.54-4,41.13-4,50.24c1.75-10,5.2-41,6.13-50.07.59-9.17,0-19.59-.73-32.81S230.29,253.16,229.51,244.1Z" style="fill:#37474f"></path><path d="M189.22,240.85c-2.4,10.16-4.64,20.34-6.9,30.51s-5.82,21.29-8.66,31.29-18.58,48.69-21.11,58.81c3.32-9.89,20.18-48.2,23.13-58.24s6.27-21.28,8.24-31.53S187.62,251.16,189.22,240.85Z" style="fill:#37474f"></path><path d="M209.11,234.77l-10.29,35L203.33,306l-1.25-30.24,10.06-36.2s13.75-1.91,15.83-11.76C220.35,236,209.11,234.77,209.11,234.77Z" style="fill:#37474f"></path><g id="freepik--Chest--inject-2"><path d="M236.4,152.57c-.3-9.59-1.8-34.32-13.48-40a225.58,225.58,0,0,0-25.23,1.88A169.33,169.33,0,0,0,176,118.88l-10.9,26.86s2.59,19.39,2.39,35.09a153.05,153.05,0,0,1-3.13,30.39c11.31,16.57,60,13.88,72.09,6.38C237.54,195.88,236.7,162.06,236.4,152.57Z" style="fill:#ebebeb"></path></g><g id="freepik--Head--inject-2"><path d="M189.82,67.44a10.57,10.57,0,0,0-5.2-1.36,6,6,0,0,0-4.5,1.28,5.36,5.36,0,0,0-2.08,3,7.3,7.3,0,0,0,.37,5c.57,1.49-.21,2.67-.71,4.08a4.93,4.93,0,0,0,1.07,5.1c1.18,1.18,2.83,2.19,3.5,3.78.8,1.89.58,4,1.38,6a14.58,14.58,0,0,0,2.77,4.21,19.35,19.35,0,0,1,1.92,3c.6.93,1.86,1.42,2.71,2.1.29.23,1,1.2,1.41,1.08.61-.16.25-2.06.24-2.48,0-1.64,0-3.3-.11-4.94l-.32-6.38s4.11-5.57,4.57-10.15c.59-5.9-.65-8.31-.65-8.31C194.16,70.89,192.12,68.74,189.82,67.44Z" style="fill:#263238"></path><path d="M196.06,76.84a17,17,0,0,0,1.87,8.89c1.22,2.36,3.44,5.55,6.09,6.4a25.87,25.87,0,0,0,13,.41c2.44-.55,4.94-1.39,6.61-3.32a22,22,0,0,0,3.07-3.89c.27-.52.29-1.08.56-1.59.66-1.23,1.87-2.32,2.28-3.66a13.43,13.43,0,0,0,.17-3.64c0-1.34.9-2.32,1-3.64a4.8,4.8,0,0,0-.81-3.37,15.29,15.29,0,0,0-1.26-1.73,9.28,9.28,0,0,0-2.52-1.62c-.79-.45-1.5-1.06-2.31-1.52A31.09,31.09,0,0,0,217.6,62a20.37,20.37,0,0,0-9.41-.46c-3.23.6-6.42,3.19-8.42,5.68A17.06,17.06,0,0,0,196.06,76.84Z" style="fill:#263238"></path><path d="M184.71,99.81c3.75,1.47,5.79-1,5.79-1l-.81,18.25c4.41,5.63,12.85,10.27,20.6,9.25,4.15-.54,6.26-5.78,2.21-11.29l.29-3.57a33.72,33.72,0,0,0,6.51,0c4.2-.65,6.84-4,8.11-8.51,2-7.3,1.93-20-.42-33.92-4.69-3.66-22.52-2.41-32.41,3.83,1.1,6,1.16,7.69.52,11.34s-2,5.31-3,5.47c-2,.3-2.32-1.88-3.61-3.23s-6.19-2.15-8.29,2.28S181.83,98.68,184.71,99.81Z" style="fill:#b16668"></path><path d="M212.79,111.49c-6.69-.67-15.12-3.82-17.25-6.89A22.49,22.49,0,0,1,192.62,99s.12,4.18,1.74,6.86,7.75,7.38,18.23,8.11Z" style="fill:#9a4a4d"></path><path d="M226.66,58.45A3.46,3.46,0,0,1,225.11,57a15.06,15.06,0,0,0-1.67-3.24,6.24,6.24,0,0,0-4.81-2.35c-1.72-.05-3.36,1-5.06,1.31s-2.62-.56-4-1.45c-1.79-1.1-4.74-1.08-6.73-.47a6.52,6.52,0,0,0-2.47,1.3c-.66.61-1,1.52-1.84,2-1.47.81-3.74-.17-5.32-.3-2.77-.23-5,.64-5.58,3-.25,1-.27,1.77-.5,2.67a3,3,0,0,1-1.48,1.76,5.28,5.28,0,0,0-2.75,3.09,5.18,5.18,0,0,0,1.36,5.32c1.35,1.12,3.74,2,5.53,1.47.23,1.55,2.13,2.67,3.62,2.84a6.21,6.21,0,0,0,2.54,0c.29-.07,2.55-1.06,2.3-1.5a5.2,5.2,0,0,0,4.24,2.48,5.89,5.89,0,0,0,5.38-2.62c-.44.7.74,1.74,1.21,2.07a5.52,5.52,0,0,0,2.7.8,4.62,4.62,0,0,0,4.14-2.1,3.2,3.2,0,0,1,3.3-1.31,13.68,13.68,0,0,0,3.59.57,4.4,4.4,0,0,0,4-2.48,4.45,4.45,0,0,0,.15-3.08c1,1.68,4.3,2.32,4.61-.19A.87.87,0,0,1,230,66.1c-.16-.86.74-1.75.92-2.57a3.81,3.81,0,0,0-2.06-4.08C228.17,59.06,227.37,58.81,226.66,58.45Z" style="fill:#263238"></path><path d="M210.56,85.41a2,2,0,1,1-2-2.06A2,2,0,0,1,210.56,85.41Z" style="fill:#263238"></path><path d="M209,78.24l-4.58,1.5A2.55,2.55,0,0,1,206,76.62,2.35,2.35,0,0,1,209,78.24Z" style="fill:#263238"></path><path d="M226.43,78.78l-4.66-1.37a2.33,2.33,0,0,1,2.93-1.69A2.56,2.56,0,0,1,226.43,78.78Z" style="fill:#263238"></path><path d="M226.11,84.47a2,2,0,1,1-2-2A2,2,0,0,1,226.11,84.47Z" style="fill:#263238"></path><path d="M209.26,96.85l6.48,2.53a3.41,3.41,0,0,1-4.45,2.1A3.64,3.64,0,0,1,209.26,96.85Z" style="fill:#9a4a4d"></path><path d="M209.06,97.86a3.6,3.6,0,0,0,2.23,3.62,3.28,3.28,0,0,0,2.33,0A5.35,5.35,0,0,0,209.06,97.86Z" style="fill:#f28f8f"></path></g><path d="M179.43,208.49a70.06,70.06,0,0,0,10.94,4.28,16.57,16.57,0,0,0,6.94.66,13.12,13.12,0,0,0,4.54-2c.58-.37,1.57-.39,3.64-1.14s2.06-2.22,2.06-2.22,1.32-.33,2.16-.48a4.31,4.31,0,0,0,2.38-1.63,18.21,18.21,0,0,0,1.49-2.21c3.27-.16,6.46.23,6.55-.51.23-1.85-3.66-3.34-6.72-3.83a62.59,62.59,0,0,1-8.34-1.91c2.21-1.26,4.33-3.07,4-4.71-.26-1.44-2.79.06-10.52,0-1.57,0-5.34.29-9.32.58-5.05.37-8-2.13-13-6.13-3.72-3-16.62-14.83-16.62-14.83L172,150.17a36.6,36.6,0,0,0,3.25-28.75c-13.82,1.8-16.63,2.46-25.27,19.09-7,13.53-13.23,28.14-14.73,32.84s-1.85,6.61,3.91,12.05c4.78,4.5,15.45,10.6,24.21,15.14C170.54,204.25,176,206.77,179.43,208.49Z" style="fill:#b16668"></path><path d="M205.07,197.54a9.93,9.93,0,0,0,3.78-3.32c-.09.08-2.37,2.06-4,2.26a16.65,16.65,0,0,1-5.15-.61c-1.52-.32-2.34-.9-3.57-.35.73-.11,1.92.56,3.81,1S205.07,197.54,205.07,197.54Zm4.53,6.06h-1a8.31,8.31,0,0,1-1-.11l-2-.32c-1.31-.19-2.62-.41-3.95-.55a8.2,8.2,0,0,1-3.74-1.11,8.32,8.32,0,0,0,1.74,1,6.41,6.41,0,0,0,1,.3c.34.07.67.1,1,.16l3.92.65,2,.28a7.61,7.61,0,0,0,2,.05c1.32-.09,2.64-.15,4-.15A24.12,24.12,0,0,0,209.6,203.6Zm-7.83,4.2a3.88,3.88,0,0,0-1.85.59,5.9,5.9,0,0,1,1.87-.24c.64,0,1.27,0,1.91,0s1.28,0,1.92,0,1.28,0,1.93-.08a27.62,27.62,0,0,0-3.85-.41A15.6,15.6,0,0,0,201.77,207.8Zm-5.31-5.53c.49.14,1.6-.68.5-.53-.79.09-2-.81-2.53,0a.14.14,0,0,0,.13.19C195.2,202,195.81,202.24,196.46,202.27Zm.35,6.16c.22-.08,1.93-.92,1.54-1.07-2.4,1.33-2.45-.71-4.37-.45-.33.22.13.37.31.46C195,207.9,195.82,208.71,196.81,208.43Zm0,3a2.7,2.7,0,0,1-2-.19c-.11-.07-.33-.12-.36.06a1.94,1.94,0,0,0,2.35.7C197.54,211.84,197.73,211.15,196.83,211.47Z" style="fill:#9a4a4d"></path><path d="M176,118.88c-15.31,2.54-18.68,5.22-23.7,15.37-7.61,15.39-15.49,33.09-16.86,36.18s-3.22,8.31,1.57,12.72c4.5-7.39,13.89-15,22.72-10.7l12.63-20.66A47.49,47.49,0,0,0,176,118.88Z" style="fill:#455a64"></path><g id="freepik--Bottom--inject-2"><path d="M370.33,388.53c-1.73-12.42-2.59-18.23-5.35-40.45h0c-.5-5.71-1.14-11.81-1.91-17.23-2.58-18.21-5.24-22.4-7.25-28.57s-4.12-17.81-9.29-57a203.51,203.51,0,0,0-10.39-43.95l-56.37,4c-4,25.08-5.48,78.95-3.52,104.37,1,13,7.53,79.19,7.58,84.57.06,5.68-.68,9.87-2.73,12.4-4.3,5.31-7.48,7.57-13,12.32,1,2.17,13.19,1.23,16.54-.71a129.08,129.08,0,0,0,14-9.58c4.53-3.88,5.5-6.09,5.2-11.49a14.93,14.93,0,0,0-.17-1.75c-.13-3.16,4.47-50.73,5.7-61.47,1-8.34-1.85-24.17-1.85-24.17l4.38-39.63s8.57,25.55,13.29,41.15c3.46,11.47,11.3,29.41,16.9,47.74h0c6.34,18.58,6.86,20.22,10.76,33.58,2,6.73,7.23,29.47,9.22,34.08,6.43,14.89,18,6.46,18.1-2C380.19,419,370.71,391.2,370.33,388.53Z" style="fill:#b16668"></path><path d="M255.63,426.19c-.31,0-.58,3.53,1.22,4.91,2.09,1.59,8.08,4,15.71,2.6s11.66-4.08,14.58-6.84,7-6.65,10.46-7.63c3.18-.9,8.34-3,9.31-4.1s.57-5.49.57-5.49Z" style="fill:#263238"></path><path d="M303.65,394.24a2.33,2.33,0,0,1,1.33,1.43c.31,1.21.42,2.78,1,4.76.88,2.75,1.69,8.44,1.4,10.74s-7.19,4.66-10.48,6.15a42.76,42.76,0,0,0-10.5,7.54c-3.43,3.19-10.86,6.64-15.87,7-7.64.57-12.72-1.21-14.42-3.87-1.47-2.31-.63-5.06,1.24-6.86,2.59-2.51,5.85-4.16,9-5.94,4.87-2.77,10.31-6.17,13.21-11.11a12.36,12.36,0,0,0,1.69-7,2.44,2.44,0,0,1,.08-1.14,2.19,2.19,0,0,1,1.71-1c3.71-.78,7.27-.09,10.85,1a4.19,4.19,0,0,1,2.22,1.31c1,1.47-.07,3.51.34,5.25a.75.75,0,0,0,.13.32c.25.35.81.24,1.17,0,1.32-.86,1.62-2.61,2.34-4a6.72,6.72,0,0,1,2.52-2.66c.4-.23.75-.31.92-.72A6.06,6.06,0,0,0,303.65,394.24Z" style="fill:#37474f"></path><path d="M262.63,417.32c11.13.1,15,8.22,15.71,12.43a26.32,26.32,0,0,1-7.77,2.12c-7.64.57-13-1.19-14.73-3.85C253.86,424.91,255,420.77,262.63,417.32Z" style="fill:#fafafa"></path><path d="M278.15,417.22a.52.52,0,0,0,.33-.14.54.54,0,0,0,0-.77A13.05,13.05,0,0,0,268.26,413a.54.54,0,0,0,.18,1.07,12.11,12.11,0,0,1,9.28,3A.54.54,0,0,0,278.15,417.22Z" style="fill:#f0f0f0"></path><path d="M282.75,414.16a.58.58,0,0,0,.34-.15.54.54,0,0,0,0-.76,13,13,0,0,0-10.25-3.35.54.54,0,1,0,.18,1.06,12.11,12.11,0,0,1,9.27,3A.54.54,0,0,0,282.75,414.16Z" style="fill:#f0f0f0"></path><path d="M287,410.72a.55.55,0,0,0,.33-.15.54.54,0,0,0,0-.76,13,13,0,0,0-10.25-3.35.54.54,0,1,0,.18,1.06,12.15,12.15,0,0,1,9.28,3A.52.52,0,0,0,287,410.72Z" style="fill:#f0f0f0"></path><path d="M290.85,406.65a.52.52,0,0,0,.33-.14.54.54,0,0,0,0-.76c-2.28-2.55-7.18-4-11.18-3.35a.54.54,0,0,0,.18,1.07c3.6-.61,8.17.74,10.2,3A.52.52,0,0,0,290.85,406.65Z" style="fill:#f0f0f0"></path><path d="M360.49,428.58c1.24,5.09,2.67,8.35,5,11s6,3,9.32,1.48,7.35-4.7,7.54-9.32.22-7.76-1.44-12.39Z" style="fill:#263238"></path><path d="M370.33,388.53c1.46-.15,2.33,6.73,4.42,13.5,2.24,7.24,3.84,10,5.75,15.92,2.17,6.77,1.59,10.08-.08,14.73s-9.52,10.33-14.86,5.09c-4.36-4.27-5.49-9.67-6.44-16.66A101.9,101.9,0,0,0,355,403.89c-1.62-5.49-3.31-10.46-2.17-11.26a50.45,50.45,0,0,0,1.88,5.45c.21.36.94,1.22.9-.27,0-.44-.33-1.41-.37-1.84a1.87,1.87,0,0,1,1-1.9,14,14,0,0,1,5.88-2.46c2.8-.53,5.21-1.07,6.92-.55,1,.31,1.17,1.21,1.43,2.07.32,1,.45,1.66.67,1.41C371.56,394,370.32,389.3,370.33,388.53Z" style="fill:#37474f"></path><path d="M381.63,421.9a17.6,17.6,0,0,1-.76,11c-1.66,4.64-10.21,10.47-15.55,5.23-2.66-2.6-3.87-6-4.82-9.59C362.19,423.48,376.9,418.69,381.63,421.9Z" style="fill:#fafafa"></path><path d="M362.25,420.46a.53.53,0,0,0,.17-.08c.05,0,6.2-4,12.94-3.69a.54.54,0,0,0,.05-1.08c-7.13-.33-13.4,3.73-13.63,3.89a.54.54,0,0,0,.47,1Z" style="fill:#f0f0f0"></path><path d="M374.09,411.58a.54.54,0,0,0-.07-1.06c-6.84-1-13.39,3.58-13.63,3.77a.53.53,0,0,0-.09.76.55.55,0,0,0,.76.09c.05,0,6.44-4.49,12.8-3.55A.44.44,0,0,0,374.09,411.58Z" style="fill:#f0f0f0"></path><path d="M373,406.74a.55.55,0,0,0,.39-.43.53.53,0,0,0-.45-.62c-7.54-1.25-13.67,3.57-13.9,3.77a.54.54,0,0,0,0,.76.53.53,0,0,0,.76,0s6-4.67,13-3.52A.48.48,0,0,0,373,406.74Z" style="fill:#f0f0f0"></path><path d="M371.74,402a.54.54,0,0,0-.05-1.05c-7.09-1.27-13.72,3.73-14,3.94a.54.54,0,0,0-.06.76.53.53,0,0,0,.76.06c.06,0,6.49-4.88,13.08-3.7A.48.48,0,0,0,371.74,402Z" style="fill:#ebebeb"></path><path d="M337.77,201.21c5.1,15.11,7,18.78,11.69,52.89,4.57,33.08,5.1,37.94,5.71,41.92,1.4,9.13,5.69,12,8.41,33.6,2.48,19.78,4.86,44.23,4.86,44.23s-2.41,3.86-9.93,5.07c-6.94,1.12-10.61-1.25-10.61-1.25s-16.2-45.38-20.63-56.78c-6-15.48-14.85-42.76-14.85-42.76l-3.49,32.1s2.54,15.12.6,29.7c-2.41,18.08-3.61,37.7-3.61,37.7a23.8,23.8,0,0,1-10.42,2.05A53.79,53.79,0,0,1,282,377.73s-6.09-53.68-7.47-73.34-4.34-67.83-3.84-98.62Z" style="fill:#455a64"></path><path d="M312.42,278.13l-8.09-34s-11.6-2.2-19.44-9.33c.94,5.66,11.58,12.26,16.4,13.06l8.48,30-.84,32.34Z" style="fill:#37474f"></path><path d="M320.75,207.77a47,47,0,0,1,4.9,8.72,88.14,88.14,0,0,1,3.52,9.37c1,3.19,1.83,6.41,2.49,9.68a64.59,64.59,0,0,1,1.36,9.9c-1-3.18-2-6.34-2.95-9.5s-1.9-6.32-2.9-9.45-2-6.28-3-9.4S322,210.87,320.75,207.77Z" style="fill:#37474f"></path><path d="M325.18,208.66a35,35,0,0,1,4.85,4.73,48.74,48.74,0,0,1,4.06,5.42,43.61,43.61,0,0,1,3.21,6,26.66,26.66,0,0,1,2,6.49l-3.45-5.74c-1.16-1.88-2.31-3.76-3.52-5.6s-2.4-3.71-3.59-5.58S326.31,210.64,325.18,208.66Z" style="fill:#37474f"></path><path d="M320.76,249c2.16,10.21,4.17,20.44,6.2,30.66s5.34,21.42,8,31.47,17.46,49.11,19.76,59.28c-3.09-10-19.07-48.64-21.79-58.75s-5.8-21.41-7.53-31.7S322.11,259.3,320.76,249Z" style="fill:#37474f"></path><path d="M283.73,251.57l.21,27.24c.07,4.54.1,9.07.21,13.6s.16,9.08.55,13.54,3.74,47.76,3.77,56.87c-1.77-10-4.91-47.59-5.86-56.69-.62-9.17-.47-18.23-.3-27.33S283,260.62,283.73,251.57Z" style="fill:#37474f"></path><path d="M306.46,373.21l-.87,9.54S302,385.43,294,385.16s-11.74-2.74-11.74-2.74l-.62-8.87a40.67,40.67,0,0,0,11.75,2A31.17,31.17,0,0,0,306.46,373.21Z" style="fill:#37474f"></path><path d="M367.81,367.29l1.38,9.48s-2.89,3.44-10.71,5.05-9.68-.5-9.68-.5l-2.68-8.48s2.37,1.19,9.53-.21A31.19,31.19,0,0,0,367.81,367.29Z" style="fill:#37474f"></path></g><g id="freepik--chest--inject-2"><path d="M269.21,148.12c.48-13.13,4.44-26.15,9.16-27.47,0,0,14.88-3.14,24.6-3.49s23.94.82,23.94.82l14.61,27.81s-2.51,25.33-2.46,35.09,1.66,22.15,3.45,34.86c-12.31,15.55-60.58,12.61-71.89,4.24C269.86,201.51,268.71,162.17,269.21,148.12Z" style="fill:#25C0D2"></path></g><g id="freepik--chest--inject-2" style="opacity:0.30000000000000004"><path d="M269.21,148.12c.48-13.13,4.44-26.15,9.16-27.47,0,0,14.88-3.14,24.6-3.49s23.94.82,23.94.82l14.61,27.81s-2.51,25.33-2.46,35.09,1.66,22.15,3.45,34.86c-12.31,15.55-60.58,12.61-71.89,4.24C269.86,201.51,268.71,162.17,269.21,148.12Z" style="fill:#fff"></path></g><g id="freepik--head--inject-2"><path d="M312.28,70.16a10.59,10.59,0,0,1,5.21-1.32A6,6,0,0,1,322,70.16a5.41,5.41,0,0,1,2.06,3,7.31,7.31,0,0,1-.41,5c-.58,1.49.19,2.68.67,4.08a5,5,0,0,1-1.11,5.1c-1.19,1.17-2.85,2.16-3.53,3.75-.82,1.88-.61,4-1.43,6a14.36,14.36,0,0,1-2.81,4.18,19.66,19.66,0,0,0-1.94,3c-.6.93-1.87,1.4-2.72,2.08-.3.23-1,1.19-1.42,1.07-.61-.17-.23-2.06-.22-2.48.05-1.65.05-3.3.15-5l.37-6.37s-4.06-5.61-4.48-10.19c-.55-5.9.71-8.3.71-8.3C307.91,73.57,310,71.44,312.28,70.16Z" style="fill:#263238"></path><path d="M306,79.5a17.13,17.13,0,0,1-2,8.88c-1.24,2.35-3.48,5.52-6.14,6.35a27.29,27.29,0,0,1-2.95.66,24,24,0,0,1-10-.35c-2.44-.58-4.93-1.43-6.59-3.38a22.42,22.42,0,0,1-3-3.91c-.27-.52-.27-1.08-.55-1.6-.64-1.23-1.84-2.33-2.24-3.67a13.46,13.46,0,0,1-.14-3.64c0-1.35-.89-2.34-1-3.65a4.81,4.81,0,0,1,.85-3.36,14.23,14.23,0,0,1,1.27-1.73A9,9,0,0,1,276,68.51c.8-.45,1.51-1.06,2.32-1.51a31.58,31.58,0,0,1,6.21-2.52A20.4,20.4,0,0,1,294,64.1c3.22.63,6.4,3.24,8.37,5.75A17.14,17.14,0,0,1,306,79.5Z" style="fill:#263238"></path><path d="M317.12,102.57c-3.76,1.44-5.78-1-5.78-1l-.71,19.54a20.79,20.79,0,0,1-19.3,7.8c-4.14-.58-6.54-3.63-2.45-9.1L289,114a26.41,26.41,0,0,1-6.69-.35,11.29,11.29,0,0,1-8.41-9c-1.25-6.22-1.22-19.39,1.24-33.27,4.73-3.61,22.55-2.22,32.39,4.1-1.15,6-1.23,7.68-.62,11.33s1.94,5.34,3,5.5c2,.32,2.33-1.86,3.63-3.2s6.21-2.1,8.28,2.35S320,101.46,317.12,102.57Z" style="fill:#b16668"></path><path d="M289,114c6.7-.62,15.15-3.69,17.31-6.74a22.88,22.88,0,0,0,3-5.55s-.15,4.17-1.8,6.84-8,7.31-18.5,8Z" style="fill:#9a4a4d"></path><path d="M275.51,60.86a3.31,3.31,0,0,0,1.56-1.38c.61-1.1.84-2.28,1.7-3.23a6.26,6.26,0,0,1,4.83-2.32c1.72,0,3.35,1.07,5,1.35,1.85.31,2.63-.54,4.06-1.41,1.8-1.09,4.75-1,6.73-.42a6.4,6.4,0,0,1,2.46,1.33c.66.61,1,1.52,1.83,2,1.46.82,3.74-.14,5.32-.26,2.77-.2,5,.68,5.56,3,.24,1,.26,1.77.48,2.67A2.94,2.94,0,0,0,316.55,64a5.32,5.32,0,0,1,2.72,3.11,5.19,5.19,0,0,1-1.4,5.32,6.68,6.68,0,0,1-5.54,1.42c-.24,1.55-2.15,2.65-3.64,2.81a6.39,6.39,0,0,1-2.54,0c-.29-.08-2.54-1.08-2.3-1.52a5.2,5.2,0,0,1-4.26,2.45,5.87,5.87,0,0,1-5.35-2.67c.43.7-.75,1.74-1.23,2.06a5.5,5.5,0,0,1-2.7.78,4.65,4.65,0,0,1-4.13-2.14,3.2,3.2,0,0,0-3.29-1.33,13.54,13.54,0,0,1-3.59.54,4.2,4.2,0,0,1-4.05-5.59c-1.06,1.66-4.32,2.28-4.61-.23a.87.87,0,0,0,1.45-.47c.17-.86-.73-1.76-.9-2.57a3.82,3.82,0,0,1,2.1-4.07C274,61.47,274.8,61.22,275.51,60.86Z" style="fill:#263238"></path><path d="M279.07,94.94l7.32,2,1.08-12.72C284.56,84.58,281.79,89.51,279.07,94.94Z" style="fill:#9a4a4d"></path><path d="M291.85,88a2,2,0,0,0,2,2,2.05,2.05,0,1,0-2-2Z" style="fill:#263238"></path><path d="M293.45,80.84l4.58,1.5a2.52,2.52,0,0,0-1.59-3.11A2.34,2.34,0,0,0,293.45,80.84Z" style="fill:#263238"></path><path d="M276,81.38,280.63,80a2.33,2.33,0,0,0-2.93-1.69A2.56,2.56,0,0,0,276,81.38Z" style="fill:#263238"></path><path d="M276.29,87.07a2,2,0,1,0,2-2A2,2,0,0,0,276.29,87.07Z" style="fill:#263238"></path><path d="M292.6,99.41l-6.5,2.48a3.42,3.42,0,0,0,4.43,2.14A3.64,3.64,0,0,0,292.6,99.41Z" style="fill:#9a4a4d"></path><path d="M292.79,100.42a3.61,3.61,0,0,1-2.26,3.61,3.25,3.25,0,0,1-2.32,0A5.35,5.35,0,0,1,292.79,100.42Z" style="fill:#f28f8f"></path></g><path d="M326.91,118c13.73-2.53,14.76,0,29.19,10.76,9.34,6.95,21.83,14.71,23.14,23.71,1.35,9.25-2.46,13.22-4.16,15.73s-6.93,3.25-9.44.4c-3.1-1.07-4.47-2.25-7.65-4.21-8.59-5.3-17.73-10.88-20.75-13C329.58,145.9,325,131.52,326.91,118Z" style="fill:#37474f"></path><path d="M344.89,96.12c.19,1.47-.37,2.29-2.08,2.81s-3.79.56-6.44,1.86a6.62,6.62,0,0,0-3.83,5.5c0,1.48.67,2.2,1.61,1.91s2.59-1.91,5.44-2.58c2.56-.6,3.92-.38,6.81.06s3.94.71,7.56,1c1.88.15,4.05,1.35,4.71,6.35.45,3.36.38,13.11-.23,24.83-.43,8.28-.43,9.61,1.21,17.29,1.25,5.84,8,12.06,11.1,12.05,6.79,0,11.69-12.81,11.12-20.49s-3.72-18.23-6.25-27.13c-2.84-10-4.29-14.79-5.06-17.06-.9-2.69-2.18-4.22-3.16-7.3-1.1-3.46-3.76-9.43-5.24-11.26s-5-1.72-7.59-1.81-3.08.41-3.24,1.15c-2.62-.12-4.62-.33-5,.87-3.11.06-4.37,0-4.76,1.78-2.06.25-2.53.73-2.73,1.73-.13.64-.21,1.71,1.23,3.65A28.13,28.13,0,0,0,344.89,96.12Z" style="fill:#b16668"></path><path d="M355.18,85.29a6.2,6.2,0,0,1,0,2,11.06,11.06,0,0,1-.45,1.91l0,.09.05.09a8.82,8.82,0,0,1,.89,2.14,3.53,3.53,0,0,1,0,2.13,1.65,1.65,0,0,1-.62.73l-.1.06h0l-.1,0a2.74,2.74,0,0,1-.39-.33c-.52-.54-1-1.17-1.51-1.79a8.76,8.76,0,0,1-1.28-1.89,5.31,5.31,0,0,1-.17-1.09c0-.39-.07-.79-.1-1.18a47.37,47.37,0,0,1-.06-4.77,25.53,25.53,0,0,0-.44,4.78c0,.41,0,.81,0,1.21a4.89,4.89,0,0,0,.14,1.27,8.92,8.92,0,0,0,1.33,2.11,19.08,19.08,0,0,0,1.56,1.87,3,3,0,0,0,.53.43.89.89,0,0,0,.46.14.64.64,0,0,0,.31-.07l.16-.09a2.32,2.32,0,0,0,.89-1.07,4.08,4.08,0,0,0-.1-2.57,9.6,9.6,0,0,0-1.09-2.2l0,.18a8.71,8.71,0,0,0,.29-2A5.19,5.19,0,0,0,355.18,85.29Z" style="fill:#9a4a4d"></path><path d="M358.25,84.81A4.25,4.25,0,0,1,357,86.58a3.39,3.39,0,0,1-1.87.76l.13.73a4,4,0,0,0,2-1.23A4.42,4.42,0,0,0,358.25,84.81Z" style="fill:#9a4a4d"></path><path d="M355,88.81a4.22,4.22,0,0,0,1.56.16,6.16,6.16,0,0,0,4.07-1.66l0,0a7,7,0,0,1-2.64,1.06,4.52,4.52,0,0,1-2.69-.2Z" style="fill:#9a4a4d"></path><path d="M346.28,84.18a4.39,4.39,0,0,0,0,2.41c.19.79.48,1.55.74,2.31a43.35,43.35,0,0,0,1.83,4.53,26.16,26.16,0,0,0,3.55,3.37,2.7,2.7,0,0,0,1.18.64A1.63,1.63,0,0,0,355,97a2.35,2.35,0,0,0,.7-1.21,3.76,3.76,0,0,0,.07-1.34l-.72.12a2.3,2.3,0,0,1-.47,2,1,1,0,0,1-.85.31,2.24,2.24,0,0,1-.93-.48,25.89,25.89,0,0,1-3.54-3.19,43.3,43.3,0,0,1-1.93-4.38c-.3-.75-.62-1.5-.85-2.26a4.3,4.3,0,0,1-.1-2.36Z" style="fill:#9a4a4d"></path><path d="M341.55,86a4.15,4.15,0,0,0,.37,2.16,13.17,13.17,0,0,0,1,2c.81,1.24,1.69,2.41,2.55,3.62a11.62,11.62,0,0,0,1.44,1.72,19.18,19.18,0,0,0,1.79,1.36l.93.61a3,3,0,0,0,1.1.51,1.81,1.81,0,0,0,1.3-.19,2.49,2.49,0,0,0,.87-1l-.66-.33a1.26,1.26,0,0,1-1.39.85,7.13,7.13,0,0,1-1.85-1,20.23,20.23,0,0,1-1.79-1.23,11.7,11.7,0,0,1-1.45-1.6c-.9-1.16-1.84-2.32-2.69-3.5A12.89,12.89,0,0,1,342,88.08,4.11,4.11,0,0,1,341.55,86Z" style="fill:#9a4a4d"></path><path d="M344.89,96.12A8.6,8.6,0,0,0,347,97.75a3.79,3.79,0,0,0,.65.29,1.19,1.19,0,0,0,.83-.05,1.51,1.51,0,0,0,.86-1.36h-.73a.9.9,0,0,1-.37.86.67.67,0,0,1-.48.09,3.63,3.63,0,0,1-.6-.17A8.31,8.31,0,0,1,344.89,96.12Z" style="fill:#9a4a4d"></path><path d="M358.41,106.16a7,7,0,0,0,2.72-1.94c.61-.5-1.58,2.4-2,5.6a51.35,51.35,0,0,0-.16,5.41h0c-.08-.79-.25-1.58-.34-2.19-.66-5-2.83-6.2-4.71-6.35A9.93,9.93,0,0,0,358.41,106.16Z" style="fill:#9a4a4d"></path><path d="M354.07,96.89a6.62,6.62,0,0,0-.13,3.33,9,9,0,0,0,1.18,3,8.53,8.53,0,0,1-.81-3.08,6.08,6.08,0,0,1,.44-3Z" style="fill:#9a4a4d"></path><g id="freepik--Arm--inject-2"><path d="M311.27,104c3.87.08,7.7.63,9.94,3.53a77.74,77.74,0,0,1,6,10,14,14,0,0,1,1.74,8.13c-.31,2.16-.45,2.61-2.06,3.23-.76,3.21-1.21,4.21-3.05,4.49s-4,.37-4.93.51a2.62,2.62,0,0,1-1.5-.18,64.83,64.83,0,0,1-4.29,5.2c-1,.85-2.24-.15-1.86-3s1.65-4.62,3.25-8,1.86-3.54.93-5.74c0,0-.27,1.31-.46,2.82a23.08,23.08,0,0,1,.68,3.54l-2.83,5.24a50.42,50.42,0,0,0-1.85-6c-1-2.45-1.05-4.54-.25-10.14Z" style="fill:#b16668"></path><path d="M311,127.77a10,10,0,0,1-.78-2.45,13.27,13.27,0,0,1-.17-2.59,44.06,44.06,0,0,1,.48-5.13v0c.05-2.28.19-4.55.28-6.82s.27-4.54.46-6.81c0,2.28,0,4.55-.07,6.83s-.11,4.54-.23,6.81v0h0c-.26,1.69-.48,3.38-.6,5.08a14.39,14.39,0,0,0,0,2.54A10.29,10.29,0,0,0,311,127.77Z" style="fill:#9a4a4d"></path><path d="M312.16,131.21l.27.95,2.88-5.86-.28-1.16Zm15.59-5.58a8.79,8.79,0,0,0-.65-3.31,26.57,26.57,0,0,0-.12,3.31c0,1.09,0,2.14-.07,3.28a4.58,4.58,0,0,0,.66-1.58A8.11,8.11,0,0,0,327.75,125.63ZM322,127.12a11.54,11.54,0,0,0,.13-2.69c-.25.86-.46,1.72-.71,2.56a7.3,7.3,0,0,1-.44,1.17c-.05.1-.1.17-.14.24l-.19.27-.39.55c-1,1.48-1.89,3-2.82,4.52a12.77,12.77,0,0,0,1.88-1.94c.51-.62,1-1.27,1.43-1.93a6.69,6.69,0,0,1,1.7-.32l-.56-1.88C321.92,127.49,322,127.31,322,127.12Z" style="fill:#9a4a4d"></path></g><path d="M220.76,89.1a28.07,28.07,0,0,0-3.52-4.95c-.06-.07-.14-.14-.2-.2a.08.08,0,0,0,0,0,5.24,5.24,0,0,0-3-1.71l.39,3.33,1.12,9.35,7.24-2.2C222.11,91.44,221.43,90.23,220.76,89.1Z" style="fill:#9a4a4d"></path></g></g><g id="freepik--Stars--inject-2"><g id="freepik--stars--inject-2"><path d="M344.44,195l3.79-3.47-.71-5.1a1.31,1.31,0,0,1,2-1.32l4.48,2.53,4.62-2.24a1.31,1.31,0,0,1,1.86,1.44l-1,5,3.57,3.7a1.31,1.31,0,0,1-.8,2.22l-5.11.58-2.42,4.54a1.31,1.31,0,0,1-2.35-.08l-2.13-4.68-5.06-.9A1.31,1.31,0,0,1,344.44,195Z" style="fill:#25C0D2"></path><path d="M386.67,134.32l.61-3.33-2.39-2.38a.86.86,0,0,1,.49-1.47l3.35-.45,1.53-3a.86.86,0,0,1,1.55,0l1.46,3,3.34.53a.86.86,0,0,1,.46,1.47l-2.45,2.33.54,3.34a.86.86,0,0,1-1.26.9l-3-1.61-3,1.54A.87.87,0,0,1,386.67,134.32Z" style="fill:#25C0D2"></path><path d="M395.13,144.61a1.54,1.54,0,1,1-.49-2.12A1.54,1.54,0,0,1,395.13,144.61Z" style="fill:#e0e0e0"></path><path d="M125.7,166.6l-3.39,1.63-.58,3.71a1,1,0,0,1-1.65.51l-2.59-2.72-3.71.6a1,1,0,0,1-1-1.41l1.78-3.3-1.71-3.35a1,1,0,0,1,1-1.38l3.69.68,2.66-2.66a1,1,0,0,1,1.63.55l.5,3.72,3.35,1.7A1,1,0,0,1,125.7,166.6Z" style="fill:#25C0D2"></path><path d="M129.44,152.27a1.71,1.71,0,1,1-1.59,1.82A1.71,1.71,0,0,1,129.44,152.27Z" style="fill:#e0e0e0"></path><path d="M154.91,85.31l2.83,3.09,4.16-.58A1.06,1.06,0,0,1,163,89.4l-2.07,3.66,1.84,3.77a1.07,1.07,0,0,1-1.17,1.52l-4.11-.84-3,2.91a1.07,1.07,0,0,1-1.81-.64l-.48-4.17-3.7-2a1.07,1.07,0,0,1,.06-1.92L152.33,90l.73-4.13A1.07,1.07,0,0,1,154.91,85.31Z" style="fill:#25C0D2"></path><path d="M141.32,84.86a1.91,1.91,0,1,1,2.47,1.1A1.92,1.92,0,0,1,141.32,84.86Z" style="fill:#e0e0e0"></path><path d="M365.67,214.22a3.21,3.21,0,1,1,1.86-4.14A3.22,3.22,0,0,1,365.67,214.22Z" style="fill:#e0e0e0"></path><path d="M141.77,221l-3.9,4.1,1.17,5.54a1.45,1.45,0,0,1-2,1.6l-5.1-2.44L127,232.66a1.44,1.44,0,0,1-2.15-1.44l.75-5.61-4.2-3.79a1.45,1.45,0,0,1,.7-2.5l5.57-1,2.31-5.17a1.45,1.45,0,0,1,2.59-.1l2.69,5,5.63.6A1.44,1.44,0,0,1,141.77,221Z" style="fill:#25C0D2"></path><path d="M114.61,202.61a3.53,3.53,0,1,1-1.73,4.69A3.54,3.54,0,0,1,114.61,202.61Z" style="fill:#e0e0e0"></path><path d="M358.82,63.38l-2.75,2.8.75,3.85a1,1,0,0,1-1.43,1.08l-3.51-1.74-3.43,1.9a1,1,0,0,1-1.47-1l.57-3.88-2.87-2.67A1,1,0,0,1,345.2,62l3.86-.65,1.66-3.56a1,1,0,0,1,1.79,0l1.82,3.48,3.89.47A1,1,0,0,1,358.82,63.38Z" style="fill:#25C0D2"></path><path d="M341.1,49.35a2.46,2.46,0,1,1-1.24,3.24A2.46,2.46,0,0,1,341.1,49.35Z" style="fill:#e0e0e0"></path></g></g></svg>